<svg width="800" height="600" xmlns="http://www.w3.org/2000/svg">

 <g>
  <title>Layer 1</title>
  <path transform="rotate(-154.773 333.777 363.069)" id="svg_1" d="m230.27699,470.069l38.81249,-214.00001l129.37499,0l38.81248,214.00001l-206.99996,0z" stroke="#000" fill="#fff"/>
  <path stroke="#000" id="svg_2" d="m272.10203,342.30113l0,14.28799l22.16603,0l10.8346,32.21688l60.99921,0l20.00019,-48.98361l-94.83032,0l0,2.47834l-19.1697,0l0,0.00039zm50.64765,62.33773c0,5.072 -4.02907,9.18355 -8.99895,9.18355s-8.99934,-4.11194 -8.99934,-9.18355s4.02907,-9.18316 8.99934,-9.18316s8.99895,4.11155 8.99895,9.18316zm41.67781,0c0,5.072 -4.02907,9.18355 -8.99895,9.18355s-8.99934,-4.11194 -8.99934,-9.18355s4.02946,-9.18316 8.99934,-9.18316s8.99895,4.11155 8.99895,9.18316z" fill="#fff"/>
  <path id="svg_4" d="m590.63221,363.279l-67.52769,-79.50003l44.47231,0l67.52769,79.50003l-67.52769,79.49996l-44.47231,0l67.52769,-79.49996z" stroke="#000000" fill="#fff"/>
  <path id="svg_8" d="m146.63221,360.279l-67.52769,-79.50002l44.47231,0l67.52769,79.50002l-67.52769,79.49996l-44.47231,0l67.52769,-79.49996z" stroke="#000000" fill="#fff"/>
  <path id="svg_9" d="m695.63221,361.279l-67.52769,-79.50002l44.47231,0l67.52769,79.50002l-67.52769,79.49996l-44.47231,0l67.52769,-79.49996z" stroke="#000000" fill="#fff"/>
  <path transform="rotate(24.9824 394.545 234.024)" stroke="#000" id="svg_10" d="m419.04898,265.9226l23.98625,0l0,-42.4691c-0.13427,-10.55079 -2.92515,-23.54447 -10.41546,-36.12378c-7.38002,-12.45562 -20.69186,-23.00641 -38.07014,-22.80233c-17.39267,-0.1979 -30.70451,10.35289 -38.07973,22.80233c-7.49031,12.57931 -10.28599,25.57917 -10.42505,36.12997l0,42.46291l23.97666,0l0,-42.46291c-0.12947,-2.33156 1.45299,-11.06411 5.27007,-16.99506c3.92738,-6.05465 8.86177,-10.80436 19.24846,-10.99608c10.38189,0.1979 15.32109,4.94143 19.24367,10.99608c3.82668,5.93095 5.39954,14.66968 5.27007,16.99506l0,42.46291l-0.0048,0zm23.98625,37.5957c0,0 0,-14.55836 0,-31.41118l-23.98625,0c0,16.86519 0,31.41736 0,31.41736l23.99584,-0.00618l-0.00959,0zm-96.99039,0.00618l23.97666,0c0,0 0,-14.55836 0,-31.41736l-23.97666,0c0,16.86519 0,31.41736 0,31.41736z" fill="#fff"/>
  <text transform="matrix(3.37462 0 0 3.13847 -744.682 -707.251)" stroke="#000" xml:space="preserve" text-anchor="start" font-family="'Exo'" font-size="24" stroke-width="0" id="svg_11" y="300.26381" x="241.59197" fill="#000000">Easy</text>
  <text style="cursor: text;" xml:space="preserve" text-anchor="start" font-family="Noto Sans JP" font-size="24" stroke-width="0" id="svg_12" y="415.2" x="299.6" stroke="#000" fill="#000000"/>
  <text style="cursor: move;" transform="matrix(3.37462 0 0 3.13847 -744.682 -707.251)" stroke="#000" xml:space="preserve" text-anchor="start" font-family="'Exo'" font-size="24" stroke-width="0" id="svg_13" y="392.34689" x="360.12384" fill="#000000">Retailer</text>
  <text xml:space="preserve" text-anchor="start" font-family="Noto Sans JP" font-size="24" stroke-width="0" id="svg_14" y="411.2" x="307.6" stroke="#000" fill="#000000"/>
  <text xml:space="preserve" text-anchor="start" font-family="Noto Sans JP" font-size="24" stroke-width="0" id="svg_15" y="411.2" x="317.6" stroke="#000" fill="#000000"/>
 </g>
</svg>